<svg id="Iconly_Light-outline_Bag" data-name="Iconly/Light-outline/Bag" xmlns="http://www.w3.org/2000/svg" width="21" height="21" viewBox="0 0 21 21">
  <g id="Bag" transform="translate(2.188 1.75)">
    <path id="Bag-2" data-name="Bag" d="M4.767,17.5a4.923,4.923,0,0,1-3.9-1.362A4.914,4.914,0,0,1,.1,12.086L.77,6.95a4.128,4.128,0,0,1,1.172-2.3,2.968,2.968,0,0,1,2.064-.817h0a4.314,4.314,0,0,1,8.575,0h.063c1.572,0,2.814,1.207,3.242,3.15l.687,5.308a4.717,4.717,0,0,1-.949,3.788,4.874,4.874,0,0,1-3.773,1.42ZM2.026,7.146l-.661,5.115a3.74,3.74,0,0,0,.478,3.056,3.661,3.661,0,0,0,2.924.917h7.085a3.579,3.579,0,0,0,2.834-1.014,3.61,3.61,0,0,0,.6-2.972L14.634,7.2c-.291-1.315-1.035-2.1-1.989-2.1H4.005C3.006,5.1,2.266,5.865,2.026,7.146ZM11.3,3.834a3.04,3.04,0,0,0-6.009,0ZM10.78,8.718a.633.633,0,0,1-.087-1.261l.087-.006h.039a.633.633,0,0,1,.087,1.261l-.087.006Zm-4.949,0a.633.633,0,0,1-.087-1.261l.087-.006H5.87a.633.633,0,0,1,.087,1.261l-.087.006Z" fill="#fff"/>
  </g>
</svg>
