<svg id="Iconly_Light-outline_Heart" data-name="Iconly/Light-outline/Heart" xmlns="http://www.w3.org/2000/svg" width="22" height="22" viewBox="0 0 22 22">
  <g id="Heart" transform="translate(1.832 2.292)">
    <path id="Heart-2" data-name="Heart" d="M8.829,17.322,8.6,17.186A31.856,31.856,0,0,1,3.1,12.9,11.311,11.311,0,0,1,.372,8.552a7.11,7.11,0,0,1,.184-5.04A5.773,5.773,0,0,1,4.111.289a6.016,6.016,0,0,1,4.812.5L9.165.93,9.41.784A6.025,6.025,0,0,1,13.977.216l.244.073a5.782,5.782,0,0,1,3.557,3.227,7.132,7.132,0,0,1,.184,5.051,11.452,11.452,0,0,1-2.728,4.342,31.876,31.876,0,0,1-5.5,4.276l-.21.131a.673.673,0,0,1-.7.006ZM4.521,1.564A4.461,4.461,0,0,0,1.763,4.1a5.755,5.755,0,0,0-.12,4.029,10.1,10.1,0,0,0,2.4,3.821A30.485,30.485,0,0,0,9.3,16.041l-.13-.083.428-.27a30.463,30.463,0,0,0,4.212-3.275l.484-.46a10.052,10.052,0,0,0,2.4-3.812,5.761,5.761,0,0,0-.119-4.04A4.468,4.468,0,0,0,13.81,1.564a4.682,4.682,0,0,0-4.242.715.672.672,0,0,1-.793.008l-.181-.13a4.674,4.674,0,0,0-4.073-.594Zm9.035,4.945a1.816,1.816,0,0,0-1.249-1.582.67.67,0,1,1,.408-1.276A3.156,3.156,0,0,1,14.893,6.4a.671.671,0,0,1-.612.724l-.057,0A.67.67,0,0,1,13.557,6.509Z" transform="translate(0)" fill="#fff"/>
  </g>
</svg>
